<svg xmlns="http://www.w3.org/2000/svg" xmlns:xlink="http://www.w3.org/1999/xlink" viewBox="0 0 705.88 313.75"><defs><style>.cls-1{fill:#fafafa;}.cls-2{fill:url(#Degradado_sin_nombre_39);}</style><linearGradient id="Degradado_sin_nombre_39" x1="522.61" y1="153.56" x2="621.63" y2="153.56" gradientUnits="userSpaceOnUse"><stop offset="0" stop-color="#fff"/><stop offset="0.99" stop-color="#969696"/></linearGradient></defs><title>logo-negative</title><g id="Capa_2" data-name="Capa 2"><g id="Capa_1-2" data-name="Capa 1"><path class="cls-1" d="M301.86,106H251.93c-2.26-10.43-7.33-16.36-16.36-16.36-7,0-12.13,4.52-12.13,11,0,8.46,6.77,14.1,35.54,21.15,27.37,6.77,46.83,18.62,46.83,47.68,0,32.16-30.18,47.11-66.57,47.11-40.91,0-68.84-16.93-72.79-50.78h49.94C219.21,177.38,228.23,185,239,185c9,0,16.08-3.66,16.08-11.56,0-9.59-9.59-15-36.39-21.16-28.77-6.77-46-20-46-45.7,0-29.9,26-48.52,66-48.52C276.19,58.05,297.91,78.64,301.86,106Z"/><path class="cls-1" d="M604.09,108.44c20.64,19.36,34.83,63.3-27.75,116.1-15.48,23-41.06,49.54-41.06,49.54s-31.93,43.19,15,39.44C592.54,310.14,679.9,257.17,679.9,199,679.9,162.94,639.67,129.82,604.09,108.44Z"/><path class="cls-2" d="M604.09,108.44c-3.45-2.07-6.86-4-10.18-5.88-17.82-9.89-33.2-16.36-39.85-18.17-20.66-5.64-28.17,3.75-28.17,3.75-5.63,7.51-3.76,18.78,3.76,28.17,8.54,10.68,58.22,62,58.22,82.64,0,6.25-4.82,15.6-11.53,25.59C638.92,171.74,624.73,127.8,604.09,108.44Z"/><circle class="cls-1" cx="681.36" cy="116.8" r="24.52"/><path class="cls-1" d="M411.62,75.42h-27V74.29c0-3.67,0-19.63.29-23.58,1-10,9.24-15.28,26.69-16.2V0c-56.19,1.26-75.29,21.16-77.47,48.46-.28,5.07-.28,21.32-.28,25.83v1.13H320.61V107h13.26V212.64h50.77V107h27Z"/><path class="cls-1" d="M485.64,172.3c-.57-3.67-.57-6.77-.57-13.82V8.68C472.09,4.43,455,1.43,434.29.36v159c0,11.29,0,18.9.57,26.8,1.13,20,14.38,29.34,35,29.34a304,304,0,0,0,32.44-1.69V182.45C491,183,486.77,181,485.64,172.3Z"/><path class="cls-1" d="M32.92,245.9H25.57c-.52-5.1-3.49-8.14-8.66-8.14-4.19,0-7.48,1.94-7.48,6.14s2.64,6.32,9.55,7.94c9.81,2.26,14.46,6.45,14.46,13.88,0,8.07-7.16,13-15.82,13C7.42,278.69.9,273.85,0,264.88H7.36c1.16,5.49,5,8.39,10.26,8.39,4.65,0,8.33-2.52,8.33-6.58,0-4.65-2.71-7-9.94-8.72-8.46-2-14.07-5.16-14.07-12.91s7-12.72,15.36-12.72C27.18,232.34,32,238.15,32.92,245.9Z"/><path class="cls-1" d="M71.92,260.62c0,10-5.88,18.07-17.37,18.07s-17.37-8.07-17.37-18.07,5.81-18,17.37-18S71.92,250.61,71.92,260.62Zm-7.56,0c0-7.75-3.61-12.85-9.81-12.85s-9.88,5.1-9.88,12.85,3.62,12.91,9.88,12.91S64.36,268.37,64.36,260.62Z"/><path class="cls-1" d="M85,267.33c0,1.16,0,2.2.06,3.23.13,1.94,1,2.58,4.07,2.32v5a35.75,35.75,0,0,1-4.65.32c-3.74,0-6.26-1.36-6.52-5.75-.06-1.29-.06-2.84-.06-4.9V230.34H85Z"/><path class="cls-1" d="M125,277.79h-7v-5.87l-2.39,4.26a13.56,13.56,0,0,1-8.65,2.51c-7.1,0-11.23-4-12-8.71a39.87,39.87,0,0,1-.32-6.07v-20.4h7v19a44.66,44.66,0,0,0,.26,4.71c.51,3.75,3,6.2,7.35,6.2,5,0,8.72-3.81,8.72-13.75V243.51h7Z"/><path class="cls-1" d="M142.53,266.69c0,1.16,0,1.93.07,2.84.26,3.35,1.55,4.06,6.2,3.61v4.91a36.13,36.13,0,0,1-5.23.39c-5.36,0-7.68-2-8-6.52-.06-1.17-.06-2.65-.06-4.59V248.74h-4.85v-5h4.85v-8.2h7v8.2h6.72v5h-6.72Z"/><path class="cls-1" d="M163.45,235.63a4.06,4.06,0,0,1-4.2,4.14,4.1,4.1,0,1,1,4.2-4.14Zm-7.75,42.16V243.51h7.1v34.28Z"/><path class="cls-1" d="M204.06,260.62c0,10-5.88,18.07-17.37,18.07s-17.37-8.07-17.37-18.07,5.81-18,17.37-18S204.06,250.61,204.06,260.62Zm-7.56,0c0-7.75-3.61-12.85-9.81-12.85s-9.88,5.1-9.88,12.85,3.62,12.91,9.88,12.91S196.5,268.37,196.5,260.62Z"/><path class="cls-1" d="M240.79,258.49v19.3h-7.1V259.26c0-1.61,0-3.1-.13-4.84-.33-3.87-2.39-6.59-7.23-6.59s-8.91,3.88-8.91,14.6v15.36h-7.1V243.51h7.1v5.68l2.32-3.94a12.93,12.93,0,0,1,8.65-2.64c7.36,0,11.56,3.8,12.2,9.81C240.72,254.16,240.79,255.71,240.79,258.49Z"/><path class="cls-1" d="M273.51,253.32h-7.23c-.71-3.61-2.84-5.74-6.32-5.74s-5,1.87-5,4.45c0,3.1,2.51,4.39,7.61,5.75,7.49,1.93,11.43,4.9,11.43,11,0,6.65-5.87,9.94-13.36,9.94s-13.24-3.42-14.21-11.16h7.17c.84,4.39,3.74,6.13,7.3,6.13,3.29,0,5.93-1.42,5.93-4.39s-2.32-4.59-8.13-6.13c-6.26-1.62-10.91-4.27-10.91-10.27,0-6.39,5-10.26,12.65-10.26C268.35,242.61,272.74,247.06,273.51,253.32Z"/><path class="cls-1" d="M301.08,241.19v2.58h7v5h-7v29.05h-7V248.74h-3.68v-5H294v-2.2c0-1.22,0-2.9.13-4.06.58-5.3,4.13-8.4,10.59-8.4a18.46,18.46,0,0,1,3.94.39v5.29c-4.2-.77-7,.26-7.43,3.1A27.36,27.36,0,0,0,301.08,241.19Z"/><path class="cls-1" d="M345.75,260.62c0,10-5.87,18.07-17.36,18.07S311,270.62,311,260.62s5.81-18,17.37-18S345.75,250.61,345.75,260.62Zm-7.55,0c0-7.75-3.62-12.85-9.81-12.85s-9.88,5.1-9.88,12.85,3.61,12.91,9.88,12.91S338.2,268.37,338.2,260.62Z"/><path class="cls-1" d="M369.7,243.06v5.55c-6.52-.45-10.59,2.91-10.59,11.36v17.82H352V243.51h7.1v5.81l2.91-4.71a8.89,8.89,0,0,1,5.29-1.94A6.58,6.58,0,0,1,369.7,243.06Z"/><path class="cls-1" d="M420.57,277.79h-30.8V233.25h7.11v38.67h23.69Z"/><path class="cls-1" d="M433.8,235.63a4.06,4.06,0,0,1-4.19,4.14,4.1,4.1,0,1,1,4.19-4.14Zm-7.74,42.16V243.51h7.1v34.28Z"/><path class="cls-1" d="M449.87,241.19v2.58h7v5h-7v29.05h-7V248.74h-3.68v-5h3.68v-2.2c0-1.22,0-2.9.13-4.06.58-5.3,4.13-8.4,10.58-8.4a18.33,18.33,0,0,1,3.94.39v5.29c-4.2-.77-7,.26-7.42,3.1A27.33,27.33,0,0,0,449.87,241.19Z"/><path class="cls-1" d="M491.77,262.62H467.18c.58,8.2,4.32,10.91,9,10.91a7.81,7.81,0,0,0,8.07-6.84h7.17c-1.49,8.13-8,12-15.5,12-9.17,0-16.07-5.81-16.07-17.94,0-10.85,6.9-18.14,16.78-18.14s15.3,7.49,15.3,17.17A25.56,25.56,0,0,1,491.77,262.62Zm-24.53-5h17.37c-.52-6.33-3.3-9.88-8.27-9.88S468,251.06,467.24,257.65Z"/></g></g></svg>